REM DIRINDEX 1\5,1\2\6,1\2\7,1\3\8,1\3\9,1\4\10,1\4\11,1\4\12
REM DIRNAME cjc026,folder01,folder02,folder03,folder04,folder05,folder06,folder07,folder08,folder09,folder10,folder11
TITLE ""
FILE "EJE_DB3000_5th_4B_44.mp3" MP3
  TRACK 01 AUDIO
    TITLE "0:"
    INDEX 01 00:00:00
  TRACK 02 AUDIO
    TITLE "10:cjc026_09882"
    INDEX 01 00:00:08
  TRACK 03 AUDIO
    TITLE "0:"
    INDEX 01 00:01:19
  TRACK 04 AUDIO
    TITLE "11:cjc026_09883"
    INDEX 01 00:01:57
  TRACK 05 AUDIO
    TITLE "0:"
    INDEX 01 00:03:28
  TRACK 06 AUDIO
    TITLE "12:cjc026_09884"
    INDEX 01 00:03:63
  TRACK 07 AUDIO
    TITLE "0:"
    INDEX 01 00:05:00
  TRACK 08 AUDIO
    TITLE "10:cjc026_09885"
    INDEX 01 00:05:38
  TRACK 09 AUDIO
    TITLE "0:"
    INDEX 01 00:06:60
  TRACK 10 AUDIO
    TITLE "11:cjc026_09886"
    INDEX 01 00:07:17
  TRACK 11 AUDIO
    TITLE "0:"
    INDEX 01 00:08:61
  TRACK 12 AUDIO
    TITLE "12:cjc026_09887"
    INDEX 01 00:09:21
  TRACK 13 AUDIO
    TITLE "0:"
    INDEX 01 00:10:46
  TRACK 14 AUDIO
    TITLE "10:cjc026_09888"
    INDEX 01 00:11:06
  TRACK 15 AUDIO
    TITLE "0:"
    INDEX 01 00:12:23
  TRACK 16 AUDIO
    TITLE "11:cjc026_09889"
    INDEX 01 00:12:61
  TRACK 17 AUDIO
    TITLE "0:"
    INDEX 01 00:14:32
  TRACK 18 AUDIO
    TITLE "12:cjc026_09890"
    INDEX 01 00:14:73
  TRACK 19 AUDIO
    TITLE "0:"
    INDEX 01 00:16:17
  TRACK 20 AUDIO
    TITLE "10:cjc026_09891"
    INDEX 01 00:16:55
  TRACK 21 AUDIO
    TITLE "0:"
    INDEX 01 00:18:05
  TRACK 22 AUDIO
    TITLE "11:cjc026_09892"
    INDEX 01 00:18:43
  TRACK 23 AUDIO
    TITLE "0:"
    INDEX 01 00:20:14
  TRACK 24 AUDIO
    TITLE "12:cjc026_09893"
    INDEX 01 00:20:52
  TRACK 25 AUDIO
    TITLE "0:"
    INDEX 01 00:22:02
  TRACK 26 AUDIO
    TITLE "10:cjc026_09894"
    INDEX 01 00:22:37
  TRACK 27 AUDIO
    TITLE "0:"
    INDEX 01 00:23:57
  TRACK 28 AUDIO
    TITLE "11:cjc026_09895"
    INDEX 01 00:24:14
  TRACK 29 AUDIO
    TITLE "0:"
    INDEX 01 00:25:36
  TRACK 30 AUDIO
    TITLE "12:cjc026_09896"
    INDEX 01 00:25:71
  TRACK 31 AUDIO
    TITLE "0:"
    INDEX 01 00:27:13
  TRACK 32 AUDIO
    TITLE "10:cjc026_09897"
    INDEX 01 00:27:51
  TRACK 33 AUDIO
    TITLE "0:"
    INDEX 01 00:28:65
  TRACK 34 AUDIO
    TITLE "11:cjc026_09898"
    INDEX 01 00:29:25
  TRACK 35 AUDIO
    TITLE "0:"
    INDEX 01 00:30:69
  TRACK 36 AUDIO
    TITLE "12:cjc026_09899"
    INDEX 01 00:31:29
  TRACK 37 AUDIO
    TITLE "0:"
    INDEX 01 00:32:43
  TRACK 38 AUDIO
    TITLE "10:cjc026_09900"
    INDEX 01 00:33:06
  TRACK 39 AUDIO
    TITLE "0:"
    INDEX 01 00:34:28
  TRACK 40 AUDIO
    TITLE "11:cjc026_09901"
    INDEX 01 00:34:66
  TRACK 41 AUDIO
    TITLE "0:"
    INDEX 01 00:36:40
  TRACK 42 AUDIO
    TITLE "12:cjc026_09902"
    INDEX 01 00:37:00
  TRACK 43 AUDIO
    TITLE "0:"
    INDEX 01 00:38:22
  TRACK 44 AUDIO
    TITLE "10:cjc026_09903"
    INDEX 01 00:38:57
  TRACK 45 AUDIO
    TITLE "0:"
    INDEX 01 00:40:02
  TRACK 46 AUDIO
    TITLE "11:cjc026_09904"
    INDEX 01 00:40:37
  TRACK 47 AUDIO
    TITLE "0:"
    INDEX 01 00:41:67
  TRACK 48 AUDIO
    TITLE "12:cjc026_09905"
    INDEX 01 00:42:27
  TRACK 49 AUDIO
    TITLE "0:"
    INDEX 01 00:43:44
  TRACK 50 AUDIO
    TITLE "10:cjc026_09906"
    INDEX 01 00:44:07
  TRACK 51 AUDIO
    TITLE "0:"
    INDEX 01 00:45:35
  TRACK 52 AUDIO
    TITLE "11:cjc026_09907"
    INDEX 01 00:45:70
  TRACK 53 AUDIO
    TITLE "0:"
    INDEX 01 00:47:30
  TRACK 54 AUDIO
    TITLE "12:cjc026_09908"
    INDEX 01 00:47:66
  TRACK 55 AUDIO
    TITLE "0:"
    INDEX 01 00:49:18
  TRACK 56 AUDIO
    TITLE "10:cjc026_09909"
    INDEX 01 00:49:53
  TRACK 57 AUDIO
    TITLE "0:"
    INDEX 01 00:51:03
  TRACK 58 AUDIO
    TITLE "11:cjc026_09910"
    INDEX 01 00:51:38
  TRACK 59 AUDIO
    TITLE "0:"
    INDEX 01 00:52:50
  TRACK 60 AUDIO
    TITLE "12:cjc026_09911"
    INDEX 01 00:53:10
  TRACK 61 AUDIO
    TITLE "0:"
    INDEX 01 00:54:35
  TRACK 62 AUDIO
    TITLE "10:cjc026_09912"
    INDEX 01 00:54:67
  TRACK 63 AUDIO
    TITLE "0:"
    INDEX 01 00:56:14
  TRACK 64 AUDIO
    TITLE "11:cjc026_09913"
    INDEX 01 00:56:47
  TRACK 65 AUDIO
    TITLE "0:"
    INDEX 01 00:57:72
  TRACK 66 AUDIO
    TITLE "12:cjc026_09914"
    INDEX 01 00:58:32
  TRACK 67 AUDIO
    TITLE "0:"
    INDEX 01 00:59:54
  TRACK 68 AUDIO
    TITLE "10:cjc026_09915"
    INDEX 01 01:00:11
  TRACK 69 AUDIO
    TITLE "0:"
    INDEX 01 01:01:28
  TRACK 70 AUDIO
    TITLE "11:cjc026_09916"
    INDEX 01 01:01:63
  TRACK 71 AUDIO
    TITLE "0:"
    INDEX 01 01:03:13
  TRACK 72 AUDIO
    TITLE "12:cjc026_09917"
    INDEX 01 01:03:48
  TRACK 73 AUDIO
    TITLE "0:"
    INDEX 01 01:04:65
  TRACK 74 AUDIO
    TITLE "10:cjc026_09918"
    INDEX 01 01:05:25
  TRACK 75 AUDIO
    TITLE "0:"
    INDEX 01 01:06:53
  TRACK 76 AUDIO
    TITLE "11:cjc026_09919"
    INDEX 01 01:07:15
  TRACK 77 AUDIO
    TITLE "0:"
    INDEX 01 01:09:09
  TRACK 78 AUDIO
    TITLE "12:cjc026_09920"
    INDEX 01 01:09:41
  TRACK 79 AUDIO
    TITLE "0:"
    INDEX 01 01:10:71
  TRACK 80 AUDIO
    TITLE "10:cjc026_09921"
    INDEX 01 01:11:31
  TRACK 81 AUDIO
    TITLE "0:"
    INDEX 01 01:12:64
  TRACK 82 AUDIO
    TITLE "11:cjc026_09922"
    INDEX 01 01:13:24
  TRACK 83 AUDIO
    TITLE "0:"
    INDEX 01 01:15:07
  TRACK 84 AUDIO
    TITLE "12:cjc026_09923"
    INDEX 01 01:15:42
  TRACK 85 AUDIO
    TITLE "0:"
    INDEX 01 01:17:00
  TRACK 86 AUDIO
    TITLE "10:cjc026_09924"
    INDEX 01 01:17:35
  TRACK 87 AUDIO
    TITLE "0:"
    INDEX 01 01:18:63
  TRACK 88 AUDIO
    TITLE "11:cjc026_09925"
    INDEX 01 01:19:25
  TRACK 89 AUDIO
    TITLE "0:"
    INDEX 01 01:21:13
  TRACK 90 AUDIO
    TITLE "12:cjc026_09926"
    INDEX 01 01:21:51
  TRACK 91 AUDIO
    TITLE "0:"
    INDEX 01 01:23:03
